<svg xmlns="http://www.w3.org/2000/svg" width="82.316" height="79.504" viewBox="0 0 82.316 79.504">
  <g id="_34" data-name="34" transform="translate(-1175 -2391)">
    <path id="Fill_243" data-name="Fill 243" d="M5.974,0h.632c.113.238.154.505.405.64C8.247.674,7.857.58,9.274,2h2.867c.428.194.55.794,1.113.7.4.551,1.385.553,1.393,1.5,0,.134.249.266.381.4a4.441,4.441,0,0,1-1.156,1.436c-.141.227-.6-.17-.613.252s-.418.186-.56.427c-.1.168-.425.2-.654.3l-.254-.221c-.108.42-.508.484-.811.654-.218.031-.25-.306-.587-.167l-.55.685c-.225-.183-.361-.394-.547-.281-.485.3-.948.628-1.414.951a2.638,2.638,0,0,1-1.7.441c-.437-.057-.759.467-1.264.052v.893c-.249.26-.664-.015-.85.473-.1-.686-.968-.321-1.053-.973-.357.169-.723.41-1.008-.123-.068-.117.1-.13.134-.229-.01-.22-.2-.106-.313-.149-.23-.23-.13-.686.354-1.58C1.118,6.762.686,5.585,0,4.656a1.7,1.7,0,0,1,1.146-1.49,4.229,4.229,0,0,1,.618-.133,6,6,0,0,1,1.673-.347c1.052.019,1.35-.247,1.681-1.261C5.281.925,5.325.349,5.974,0Z" transform="translate(1208.688 2414.511)"/>
    <path id="Fill_245" data-name="Fill 245" d="M11.231,8.682c-.634.393-1.259.508-1.646,1.017a.876.876,0,0,1-.551.307c-.731.159-1.216.85-2,.9-.141.009-.267.249-.4.381-.81-.076-1.566.4-2.385.234-.212-.044-.448.092-.642-.084a3.185,3.185,0,0,0-1.847-.709A2.323,2.323,0,0,1,.427,9.846C.355,9.607.567,9.189,0,9.252V8.211A3.584,3.584,0,0,1,2.478,6.98,15.985,15.985,0,0,0,5.325,6.24a1.725,1.725,0,0,0,.991-.9A24.036,24.036,0,0,0,7.86,1.461C8.175.46,8.155.454,9.009,0c.615.154.367.71.452,1.053l.671-.672a1,1,0,0,1,.5.71c.345.014.71.206.989-.239.191.429-.11.948.529,1.175l.534-.724c.282.323.034.659.222.913.215.135.338-.012.468-.154.052.034.126.055.154.1A3.5,3.5,0,0,1,13.363,5.9,6.39,6.39,0,0,1,12.01,7.487,2.544,2.544,0,0,0,11.231,8.682Z" transform="translate(1233.498 2447.934)"/>
    <path id="Fill_247" data-name="Fill 247" d="M13.063,7.2c-.29.029-.567.159-.71-.2-.348.256-.6.768-1.11.295a.236.236,0,0,0-.38.036c-.167.229-.422.059-.628.164A4.874,4.874,0,0,1,8.38,9.71c-.094.077-.241.216-.35.217a21.022,21.022,0,0,1-3.013-.041c-.294-.378-.945.105-1.155-.478a2.436,2.436,0,0,1-1.135-.35c-.376-.2-.709-.486-1.077-.666A2.705,2.705,0,0,1,.494,7.162C.306,6.83.166,6.471,0,6.114A2.945,2.945,0,0,1,.7,5.059a1.679,1.679,0,0,1,.659-.329,5.346,5.346,0,0,0,1.842-1C4.549,2.68,5.837,1.558,7.127.44A4.732,4.732,0,0,1,7.956,0c.213.159.469.271.393.6.359.222.759-.034,1.1.16.029.321-.349.005-.356.321.28.167.646.006.981.079.152.241.461.345.558.665.08.262.431.589.359.72-.19.343.147.544.091.828s.053.654-.091.859c-.167.237.205.512-.174.676.412.262.782.661,1.2.714.453.058.464.807,1.054.449Z" transform="translate(1217.642 2432.787)"/>
    <path id="Fill_249" data-name="Fill 249" d="M3.332,10.437c-.544.266-.77.952-1.449,1.139-.227-.716.935-.839.575-1.517a5.58,5.58,0,0,0-1-.545A.84.84,0,0,1,.9,8.959,2.4,2.4,0,0,0,.01,7.842a6.086,6.086,0,0,1,.006-.773A2.393,2.393,0,0,1,.682,5.536,9.6,9.6,0,0,1,4.555,3.162,6.57,6.57,0,0,0,5.6,2.632,8.183,8.183,0,0,0,5.92,1.1.761.761,0,0,1,6.533.362,3.1,3.1,0,0,0,7.24,0V1.472L8.08.643a4.8,4.8,0,0,1,2.571,3.343l-.46.163v.939C9.6,5.536,9.542,6.233,9.309,6.8A5.97,5.97,0,0,1,8.16,8.695a5.731,5.731,0,0,0-1.288,1.5.782.782,0,0,1-.394.392,2.9,2.9,0,0,0-1.4,1.222l-.21-.578c-.151.485-.24.846-.718,1.083-.583.289-.788-.049-1.092-.328-.145.156-.263.311-.484.192-.026-.063-.091-.142-.072-.189a2.365,2.365,0,0,1,.711-1.061C3.362,10.807,3.484,10.668,3.332,10.437Z" transform="translate(1197.974 2438.888)"/>
    <path id="Fill_251" data-name="Fill 251" d="M7.811,10.373c-.142-.057-.157-.219-.345-.134-.065.537.122,1.15-.366,1.707-.192.071-.622-.033-.741.349-.1.307-.2.538-.5.584-.347-.006-.084-.458-.4-.454s-.395.309-.6.448c-.1-.065-.163-.191-.109-.277.158-.249.331-.48.163-.79-.244-.21-.36.1-.541.134a.226.226,0,0,1-.072-.3,22.441,22.441,0,0,0,.946-2.656A19.962,19.962,0,0,0,3.257,7.963,8.9,8.9,0,0,1,1.419,6.52H.446c0-.57.648-.721.515-1.354-.335-.232-.421.617-.837.482-.105-.064-.141-.159-.118-.339A19.952,19.952,0,0,1,2.1,4.539a10.591,10.591,0,0,1,2.361-.575c.822-.185,1.622-.015,2.462-.157.594-.456.491-1.25.747-1.894A4.424,4.424,0,0,1,8.792.118C9-.066,9.2.015,9.435.036c.037.339-.563.387-.347.834L9.95.451c.237.014.217.174.215.322,1.092.249,1.281.369,1.671,1.5a2.58,2.58,0,0,1,.14.886c-.015.413,0,.827,0,1.234.083.167.267.084.418.189V6.279c-.855.294-1.051,1.2-1.542,1.87a1.267,1.267,0,0,1-.991.706,3.654,3.654,0,0,0,.669-.771c.1-.246.391-.438.308-.739-.065-.121-.116-.127-.172-.047-.325.461-.57,1-1.174,1.186.025.42-.121.353-.328.111-.237.162-.088.4-.119.6-.024.15-.008.283-.23.3C8.269,9.525,8.154,10.06,7.811,10.373Z" transform="translate(1212.447 2391)"/>
    <path id="Fill_253" data-name="Fill 253" d="M4.7,10.348c.049.462-.026.763-.415.908-.3,0-.387-.311-.6-.451a.55.55,0,0,1-.853.059,1.346,1.346,0,0,1-.525-.793A1.764,1.764,0,0,0,1.563,8.91,5.44,5.44,0,0,1,.12,6.8,1.143,1.143,0,0,1,.16,5.705,2.132,2.132,0,0,1,1.792,4.476c.491-.086.95-.357,1.452-.211.114-.2.289-.265.341-.479A13.442,13.442,0,0,1,4.857.6c.376-.7.7-.739,1.4-.351a5.933,5.933,0,0,1,1.256.794A3.431,3.431,0,0,1,8.557,2.513,5.533,5.533,0,0,1,9.006,4.7c0,.35-.155.747.209,1.043.056.045.043.232,0,.326-.284.648-.151,1.395-.548,2.03a6.718,6.718,0,0,1-1.541,1.939,1.3,1.3,0,0,1-.881.321C5.767,10.318,5.279,10.348,4.7,10.348Z" transform="translate(1194.636 2406.86)"/>
    <path id="Fill_255" data-name="Fill 255" d="M11.106,3.442c0,.269-.08.536.014.631.459.468-.138.851-.058,1.274-.529.5-.687,1.235-1.124,1.787A1.089,1.089,0,0,1,8.924,7.7a1.123,1.123,0,0,0-.845.4c-.229-.169-.468-.318-.766-.135-.03.184.27.239.15.51-.407.133-.863.279-1.316.432S5.085,9.1,4.8,9.417c-.33.37-.748.611-1.1,1.01a2.189,2.189,0,0,0-.98-.32c.169-.3.57-.374.434-.852l-.537.434A.219.219,0,0,1,2.529,9.4a.672.672,0,0,0,.157-.782A4.952,4.952,0,0,1,.742,8.033c-.193-.343.21-.627.215-.922C.684,6.9.552,7.029.416,7.183a.515.515,0,0,1-.349-.749A2.092,2.092,0,0,1,.956,5.4C2.374,4.736,3.727,3.936,5.15,3.328,5.776,2.264,5.66.875,6.693,0h.67c.109.329.345.383.681.482A1.961,1.961,0,0,1,9.51,1.608c.152.456.528.742.715,1.171A1.067,1.067,0,0,0,11.106,3.442Z" transform="translate(1176.26 2426.477)"/>
    <path id="Fill_257" data-name="Fill 257" d="M9.4,6.537c-.155-.115-.2-.244-.239-.236l-1.04,1.09c-.031.2.434-.077.452.192-.686.4-1.613.547-1.7,1.64l.312.313.579-.787c.237.254.164.394.014.544a1.955,1.955,0,0,1-1.315.655c-.383.021-.724.34-1.157.18l-.149.427c-.145.088-.154-.093-.314-.142-.029.372-.43.386-.626.628-.363-.148-.64-.575-1.02-.513-.181.029-.455-.365-.577.115l-.529-.679H1.158A2.07,2.07,0,0,1,.23,8.771l.2-.335L0,8.006a1.784,1.784,0,0,1,.4-.827c.167-.261.43-.222.685-.12.014.2-.316.308-.1.582a12.73,12.73,0,0,1,1.668-.69C3.032,5.94,3,4.786,3.826,3.923a1.238,1.238,0,0,0,.258-1.014c-.042-.211.154-.2.324-.2.264.311.025.706.147,1.043a1.4,1.4,0,0,0,.961-1.543c-.007-.242.213-.488.1-.806-.194-.039-.155.116-.193.231a1.034,1.034,0,0,1-.193.258A.307.307,0,0,1,4.846,2,1.85,1.85,0,0,1,6.231,0c.25.242-.016.582.169.856.225-.034.3-.263.5-.4.128.235.186.524.454.667.221.084.318-.117.5-.253A1.893,1.893,0,0,1,9.285,2.631c.01.343.408.713.19,1.019-.269.38.134.626.037.961-.134.466.326.864.23,1.373A1.152,1.152,0,0,1,9.4,6.537Z" transform="translate(1207.014 2459.462)"/>
    <path id="Fill_259" data-name="Fill 259" d="M8.511,0h.651c.253.238,0,.574.16.846.39.211.476-.212.707-.356a.807.807,0,0,1,.15.08c.257.213.4.507.688.726a2.284,2.284,0,0,1,.558,2.979,4.913,4.913,0,0,1-.9,1.529c-.34.322-.258.742-.521,1.048a3.809,3.809,0,0,0-.768.919c-.217.478-.9.589-1.23,1.04-.6-.137-.694.374-.929.717a3.563,3.563,0,0,1-.425.434,5.873,5.873,0,0,0-1-.274c-.32-.013-.622-.413-.964-.022-.485-.426-1.009.126-1.453-.033-.489-.175-1.052-.123-1.488-.515C1.6,8.982,1.255,9.038,1,9.042a.478.478,0,0,1-.484-.3c-.147-.409.413-.421.12-.75-.12-.212-.4.021-.58-.15A.824.824,0,0,1,.03,7.319a2.988,2.988,0,0,1,1.115-.333A5.394,5.394,0,0,0,2.8,6.353a8.152,8.152,0,0,0,3.056-1.9,3.859,3.859,0,0,0,.712-1.065Q7.15,2.162,7.763.949A2.353,2.353,0,0,1,8.511,0Z" transform="translate(1232.317 2411.107)"/>
    <path id="Fill_261" data-name="Fill 261" d="M.272,6.366l.473.447c.827-.03,1.028-.757,1.2-1.284C2.433,4,3.042,2.517,3.557,1,3.7.564,3.829.471,4.82,0c.112.521.406.73.981.754a1.558,1.558,0,0,1,1.03.69c.176.268.583.55.524.763-.092.332.434.545.082.867-.05.046.235.229.19.445-.07.336.464.623.2.9-.325.349.18.569.022.847a.156.156,0,0,0,0,.111c.135.411-.739.442-.35,1.021.137.2-.237.57-.4.856a4.907,4.907,0,0,1-.74.933,1.516,1.516,0,0,1-.917.567c-.346-.482-.713.309-1.1.1-.094.731-1,.677-1.247,1.328-.06.179.217.239.245.431a.556.556,0,0,1-.82.466A4.868,4.868,0,0,0,.9,10.86,1.832,1.832,0,0,0,.352,9.611c-.2-.183-.278-.461-.17-.592C.69,8.4.2,7.859.079,7.307-.028,6.81-.078,6.821.272,6.366Z" transform="translate(1175 2402.94)"/>
    <path id="Fill_263" data-name="Fill 263" d="M0,3.77l.74-.74a11.573,11.573,0,0,1,4.906-.058,1.317,1.317,0,0,0,.846-.991c.169-.524.607-.859.76-1.379.114-.387.636-.289.8-.6.369.152.621.292.5.73C9.081.7,9.52.693,9.8,1.139c.22.344.782.3.882.861a3.877,3.877,0,0,0,.568,1.074c-.5.737.215,1.34.179,2.012-.152.441-.294.864-.953.893A2.171,2.171,0,0,0,9.4,6.59a.809.809,0,0,1-1.187,0c-.017.552-.5.644-.868.863-.084-.047-.2-.174-.312-.166-.736.051-1.416-.34-2.1-.337a3.724,3.724,0,0,1-1.906-.42,18.505,18.505,0,0,1-1.817-.81C.978,5.544.765,5.461.666,5.147.519,4.684-.022,4.409,0,3.77Z" transform="translate(1245.881 2429.817)"/>
  </g>
</svg>
