<svg xmlns="http://www.w3.org/2000/svg" width="95.267" height="76.946" viewBox="0 0 95.267 76.946">
  <g id="_100" data-name="100" transform="translate(-469 -1833)">
    <path id="Fill_550" data-name="Fill 550" d="M473.967,1867.365a1.594,1.594,0,0,1-.524-.112,5.949,5.949,0,0,1-3.092-2.817A12.82,12.82,0,0,1,469,1858.6a15.068,15.068,0,0,1,1.349-5.825,24.551,24.551,0,0,1,6.226-9.007,9.094,9.094,0,0,1,4.4-1.777l.009,0,.53-.112a1.994,1.994,0,0,1,.42-.045,3.321,3.321,0,0,1,2.856,2.725,17.137,17.137,0,0,1,.336,3.487,35.415,35.415,0,0,1-1.376,8.081,30.513,30.513,0,0,1-3.372,7.475,11.17,11.17,0,0,1-3.105,3.065,1.988,1.988,0,0,1-1.208.328c-.163,0-.33-.009-.492-.018-.19-.011-.345-.019-.505-.019-.072,0-.138,0-.2.005h-.007a.8.8,0,0,1-.27-.1l-.026-.013a.877.877,0,0,0-.335-.11.165.165,0,0,0-.133.056c-.071.083-.085.259-.042.536a.014.014,0,0,1,0,.011C474.042,1867.359,474.013,1867.365,473.967,1867.365Zm3.882-20.135c-.221,0-.349.179-.474.352-.03.042-.061.085-.093.124a28.485,28.485,0,0,0-3.809,6.362,14.86,14.86,0,0,0-1.348,4.4,2.661,2.661,0,0,0,.562,2.1,2.068,2.068,0,0,0,1.567.666,3.17,3.17,0,0,0,1.247-.276,6.37,6.37,0,0,0,2.811-2.363,22.9,22.9,0,0,0,3.417-9.644c0-.11,0-.217,0-.321.016-.76.027-1.306-.718-1.524a1.277,1.277,0,0,0-.357-.058c-.492,0-.68.393-.879.809-.037.077-.075.157-.116.234-.019.035-.037.073-.056.11-.118.24-.252.512-.574.512a.63.63,0,0,1-.076,0c-.483-.057-.606-.455-.66-.795-.007-.045-.012-.093-.017-.139-.023-.223-.046-.454-.3-.525A.492.492,0,0,0,477.849,1847.23Z"/>
    <path id="Fill_552" data-name="Fill 552" d="M555.831,1857.95c-1.52,0-2.877-1.11-3.822-3.126a14.407,14.407,0,0,1-1.238-6.131,17.846,17.846,0,0,1,3.446-11.242,6.481,6.481,0,0,1,1.834-1.817,2.067,2.067,0,0,1,1.06-.317,1.522,1.522,0,0,1,1.488,1.182c.175.632.472.785,1.069.887a5.185,5.185,0,0,1,4.587,4.86,20.2,20.2,0,0,1-1.129,7.5,18.738,18.738,0,0,1-3.964,6.446A4.716,4.716,0,0,1,555.831,1857.95Zm-1.634-14.993h0a9.594,9.594,0,0,0,.536,7.689c.5.931,1.087,1.4,1.741,1.4a2.512,2.512,0,0,0,1.8-1.113,11.376,11.376,0,0,0,1.957-3.908c.662-2.1-.063-3.558-2.157-4.328a1.881,1.881,0,0,0-.639-.135c-.449,0-.721.283-.832.865-.12.636-.359,1.366-1.148,1.366H555.4c-.708-.031-.811-.6-.91-1.141-.025-.137-.051-.279-.086-.409a.336.336,0,0,0-.061-.094l-.006-.008C554.3,1843.1,554.261,1843.045,554.2,1842.957Z"/>
    <path id="Fill_554" data-name="Fill 554" d="M527.03,1866.278a3.109,3.109,0,0,1-2.762-1.836,14.448,14.448,0,0,1-1.667-4.749,11.456,11.456,0,0,1,.368-5.031,21.388,21.388,0,0,1,4.375-8.15c.243-.277.609-.646.979-.646a.546.546,0,0,1,.147.02,1.37,1.37,0,0,0,.364.054c.567,0,.846-.444,1.091-.836l.048-.076a2.889,2.889,0,0,1,2.6-1.455,4.775,4.775,0,0,1,.8.072,3.76,3.76,0,0,1,3.266,2.579,6.253,6.253,0,0,1,.225,2.9,21.891,21.891,0,0,1-1.143,5.842,52.831,52.831,0,0,1-2.252,5.515,14.212,14.212,0,0,1-1.766,2.979,8.5,8.5,0,0,1-2.663,2.248A4.288,4.288,0,0,1,527.03,1866.278Zm1.59-17.007c-.239,0-.393.229-.464.365a22.181,22.181,0,0,0-2.882,8.114,2.614,2.614,0,0,0,1.213,2.4,1.163,1.163,0,0,0,.5.12,2.45,2.45,0,0,0,1.564-.984l.061-.063a18.335,18.335,0,0,0,4.532-8.437c.178-.711-.15-1.181-1.032-1.478a1.73,1.73,0,0,0-.546-.105c-.4,0-.679.234-.869.735-.176.464-.41.96-.955.96a1.006,1.006,0,0,1-.139-.01c-.41-.058-.47-.384-.529-.7a1.78,1.78,0,0,0-.1-.371.853.853,0,0,1-.049-.193c-.026-.153-.053-.311-.252-.344A.378.378,0,0,0,528.62,1849.272Z"/>
    <path id="Fill_556" data-name="Fill 556" d="M546.77,1889.118h0a4.353,4.353,0,0,1-2.208-.567,2.409,2.409,0,0,1-.739-.8,2.023,2.023,0,0,0-.877-.856c.576-.626.225-1.028-.116-1.416a1.438,1.438,0,0,1-.426-.724,20.306,20.306,0,0,1-.064-4.465,12.559,12.559,0,0,1,1.251-4.326,19.117,19.117,0,0,1,5.693-6.984.926.926,0,0,0,.379-.754,4.587,4.587,0,0,1,.27-1.312c.562-1.355,1.36-2.071,2.309-2.071a3.418,3.418,0,0,1,2.171,1.032,7.061,7.061,0,0,1,2.38,5.738,27.915,27.915,0,0,1-2.552,9.916,21.274,21.274,0,0,1-3.658,5.954A5.136,5.136,0,0,1,546.77,1889.118Zm3.558-17.437a1.272,1.272,0,0,0-.863.538c-.046.048-.088.094-.131.138a16.726,16.726,0,0,0-2.845,3.753l-.04.073c-.792,1.469-1.612,2.988-1.4,4.787l.013.113c.132,1.125.269,2.287,1.488,2.651a2.221,2.221,0,0,0,.634.1,3.644,3.644,0,0,0,2.483-1.458.744.744,0,0,0,.072-.1.881.881,0,0,1,.059-.084,18.446,18.446,0,0,0,3.334-7.657,4.153,4.153,0,0,0-1.228-4.1,1.424,1.424,0,0,0-.39.87c-.008.047-.016.094-.026.14-.056.284-.223.467-.426.467a.423.423,0,0,1-.216-.065A1.025,1.025,0,0,0,550.328,1871.681Z"/>
    <path id="Fill_558" data-name="Fill 558" d="M492.1,1880.182c-.672,0-1.056-.537-1.37-1.117a9.644,9.644,0,0,1-.965-6.66,35.7,35.7,0,0,1,5.224-12.74,9.775,9.775,0,0,1,1.664-1.818,1.125,1.125,0,0,1,.722-.346c.362,0,.64.309.784.871.015.057.026.116.037.173.049.258.1.523.455.62,1.522.418,1.889,1.686,2.244,2.913.049.17.1.345.153.514a5.249,5.249,0,0,1,.16,1.335c.01.258.022.551.049.87a25.945,25.945,0,0,1-3.5,11.452c-.134.23-.283.454-.428.67s-.289.434-.42.657a5.225,5.225,0,0,1-4.775,2.606Zm4.787-16.71a1.371,1.371,0,0,0-1.4.9,3.916,3.916,0,0,1-.487.887c-1.685,2.234-2.229,4.9-2.755,7.487l0,.013c-.067.33-.137.671-.207,1.005.008.1.012.2.015.3.018.485.037.987.526,1.227a.724.724,0,0,0,.32.077,1.521,1.521,0,0,0,.887-.459l0,0c.063-.051.122-.1.181-.145a6.024,6.024,0,0,0,1.42-1.594,20.665,20.665,0,0,0,2.948-7.851c.164-1.064-.025-1.634-.58-1.74A4.683,4.683,0,0,0,496.888,1863.472Z"/>
    <path id="Fill_560" data-name="Fill 560" d="M508.655,1897.149a3.174,3.174,0,0,1-.992-.174c.5-.234.759-.5.749-.76s-.285-.518-.736-.69c-1.435-.547-1.689-1.767-1.934-2.947-.033-.161-.068-.327-.1-.488a5.738,5.738,0,0,1,.189-2.67,36.66,36.66,0,0,1,4.924-10.785,4.033,4.033,0,0,1,.635-.711,3.935,3.935,0,0,0,.7-.8.671.671,0,0,1,.57-.344.662.662,0,0,1,.213.036c.307.1.427.322.388.7a1.968,1.968,0,0,0,.722,1.67c1.392,1.368,1.226,3.264,1.093,4.788a25.3,25.3,0,0,1-4.078,11.635A2.751,2.751,0,0,1,508.655,1897.149Zm.294-11.625a.177.177,0,0,0-.154.134.222.222,0,0,0,.08.254c.711.526.461,1.091.218,1.638-.05.113-.1.228-.142.339a6.446,6.446,0,0,0-.393,4.028,6.065,6.065,0,0,0,1.4-2.056c.107-.221.218-.448.337-.667a14.9,14.9,0,0,0,1.567-5.289c.039-.287.036-.631-.338-.742a.508.508,0,0,0-.143-.022c-.256,0-.408.226-.541.426l-.014.021a1.275,1.275,0,0,0-.132.325c-.05.163-.1.317-.2.368-.226.11-.312.39-.4.661-.106.346-.216.7-.621.7a1.283,1.283,0,0,1-.475-.113A.127.127,0,0,0,508.949,1885.524Z"/>
    <path id="Fill_562" data-name="Fill 562" d="M4.621,8.718l-.3-1.061a11.229,11.229,0,0,0-2.045,3.937A1.326,1.326,0,0,0,3.7,13.277,2.834,2.834,0,0,0,5.931,11.91,15.982,15.982,0,0,0,8.288,5.152a4,4,0,0,0-.419-2.445A2.46,2.46,0,0,1,9.052.078c.994-.32,1.466.4,1.8,1.123a8.376,8.376,0,0,1,.3,4.447A22.152,22.152,0,0,1,8.129,15c-.763,1.285-1.639,2.466-3.266,2.7C2.092,18.1.956,17.8.236,15.021-.713,11.353,1.3,6.265,4.426,4.065A1.156,1.156,0,0,1,5.573,3.79c.514.2.439.67.456,1.056A8.793,8.793,0,0,1,4.906,8.759Z" transform="translate(500.483 1833)"/>
    <path id="Fill_564" data-name="Fill 564" d="M1.761,19.117C.874,19.194.226,18.846.186,18A13.658,13.658,0,0,1,.22,13.472,24.732,24.732,0,0,1,3.628,5.935c.684-1.017.405-2.147.837-3.164A6.476,6.476,0,0,1,5.914.519c.431-.41.89-.717,1.5-.364a1.535,1.535,0,0,1,.854,1.494c.225,4.994-1.665,9.445-3.349,13.96a11.575,11.575,0,0,1-1.588,2.713A1.65,1.65,0,0,1,1.761,19.117Z" transform="translate(522.51 1890.818)"/>
  </g>
</svg>
