<svg xmlns="http://www.w3.org/2000/svg" width="84.548" height="81.175" viewBox="0 0 84.548 81.175">
  <g id="_1" data-name="1" transform="translate(-832 -3306)">
    <path id="Fill_566" data-name="Fill 566" d="M7.528,15.106c-1.306.032-2.595-.3-3.907-.183-.207.018-.577-.051-.617-.167C2.613,13.605,1.309,13.743.577,13a1.434,1.434,0,0,1-.394-1.846C1.39,8.577,2.451,5.943,3.437,3.276c.259-.7.514-1.409.7-2.132C4.323.452,4.918.23,5.437.039,6-.169,6.067.513,6.366.8c1.4,1.368,1.446,3.221,1.856,4.945.529,2.223,1.006,4.461,1.607,6.666C10.329,14.251,9.742,15.4,7.528,15.106Z" transform="translate(906.553 3338.922)"/>
    <path id="Fill_568" data-name="Fill 568" d="M9.022,10.417A1.63,1.63,0,0,1,7.4,12.146c-1.476.173-2.951.373-4.432.474C1.611,12.713.9,11.608.227,10.744-.237,10.149.079,9.3.558,8.586A42.307,42.307,0,0,0,4.435.971c.19-.461.389-.885.984-.961.644-.083.774.4,1.072.789A9.909,9.909,0,0,1,7.916,4.671,34.974,34.974,0,0,1,9.022,10.417Z" transform="translate(890.759 3307.55)"/>
    <path id="Fill_570" data-name="Fill 570" d="M8.315,9.893c0,1.195.323,2.132-.8,2.672a1.338,1.338,0,0,1-.781.253,5.738,5.738,0,0,0-3.625.42c-.9.445-1.4.1-2.065-.557-1.277-1.257-1.308-1.763-.5-3.319A43.815,43.815,0,0,0,4.083,1.737,6.02,6.02,0,0,1,4.52.581.943.943,0,0,1,6.2.453c1.167,1.329,1.3,3,1.547,4.619C8.009,6.779,8.156,8.5,8.315,9.893Z" transform="translate(888.369 3329.234)"/>
    <path id="Fill_572" data-name="Fill 572" d="M3.409,12.17A5.59,5.59,0,0,1,.235,10.5,1.248,1.248,0,0,1,.182,9.109C.97,7.517,1.277,5.751,2.1,4.143a18.982,18.982,0,0,0,.835-2.729C3.133.772,3.455.063,4.227,0S5.4.65,5.728,1.2A14.667,14.667,0,0,1,7.165,5.783c.359,1.715.589,3.459.842,5.195.1.694-.364,1.132-.3,1.761.036.335-.389.384-.792.27C5.761,12.685,4.58,12.444,3.409,12.17Z" transform="translate(894.138 3371.038)"/>
    <path id="Fill_574" data-name="Fill 574" d="M8.259,10.792c0,1.12-.581,1.643-1.808,1.421a15.8,15.8,0,0,0-2.983-.073A4.022,4.022,0,0,1,.64,10.9,1.628,1.628,0,0,1,.278,8.684,45.1,45.1,0,0,0,3.684.86C4.031-.2,4.748-.263,5.495.575A5.343,5.343,0,0,1,6.612,2.506,39.689,39.689,0,0,1,8.259,10.792Z" transform="translate(871.779 3316.731)"/>
    <path id="Fill_576" data-name="Fill 576" d="M4.494,11.416a20.14,20.14,0,0,1-2.358-.141c-1.788-.3-2.355-.834-2.063-2.6A45.252,45.252,0,0,1,1.421,1.961,5.016,5.016,0,0,1,2.006.628c.481-.685,1.086-.89,1.782-.209A7.015,7.015,0,0,1,5.28,2.377,50.645,50.645,0,0,1,7.813,8.983a1.77,1.77,0,0,1-1.637,2.344C5.577,11.349,4.978,11.39,4.494,11.416Z" transform="translate(855.552 3326.155)"/>
    <path id="Fill_578" data-name="Fill 578" d="M4.572,11.825a5.643,5.643,0,0,1-2.329.235C1.037,11.823-.316,10.021.066,8.9.914,6.407,1.424,3.825,2.194,1.315,2.369.742,2.492.1,3.25.01s1.069.5,1.33,1.024A53.738,53.738,0,0,1,7.617,9.265a1.551,1.551,0,0,1-.879,1.955C6.032,11.618,5.2,11.341,4.572,11.825Z" transform="translate(874.018 3361.56)"/>
    <path id="Fill_580" data-name="Fill 580" d="M7.1,8.566c.123,2.179-.848,3.164-3.037,3.589a4.552,4.552,0,0,1-2.848-.647A1.853,1.853,0,0,1,.1,9.059a38.681,38.681,0,0,1,1.647-4.54C2.215,3.29,2.669,2.061,3.074.81c.322-.994.728-.959,1.55-.5,1.422.788,1.708,2.1,1.921,3.461C6.794,5.356,6.919,6.966,7.1,8.566Z" transform="translate(855.515 3306)"/>
    <path id="Fill_582" data-name="Fill 582" d="M0,8.841a4.411,4.411,0,0,1,.654-2.25A42.852,42.852,0,0,0,3.114,1.16c.605-1.5.738-1.379,1.994-.579,1.307.833,1.635,2.071,2.064,3.313.466,1.348.864,2.725,1.2,4.112.3,1.264.047,1.523-1.163,1.94a13,13,0,0,1-3.377,1.075A.855.855,0,0,1,2.8,10.366c-.159-.459-.506-.426-.879-.271A1.309,1.309,0,0,1,0,8.841Z" transform="translate(852.025 3354.258)"/>
    <path id="Fill_584" data-name="Fill 584" d="M6.215,11.161c-1.385-.15-2.587-.217-3.765-.423C.513,10.4-.31,8.966.1,7.015A32.061,32.061,0,0,1,1.676,1.283C2.3-.216,3.033-.411,4.118.748A6.048,6.048,0,0,1,5.265,2.532a36.587,36.587,0,0,1,2.35,6.783C7.87,10.6,7.364,11.193,6.215,11.161Z" transform="translate(853.877 3376.013)"/>
    <path id="Fill_586" data-name="Fill 586" d="M840.238,3336.378h0a3.863,3.863,0,0,1-3.236-2.029,1.235,1.235,0,0,1,.042-.958c.414-.941.827-1.893,1.227-2.814l.008-.018c.569-1.309,1.157-2.662,1.746-3.988.249-.561.518-.822.845-.822a1.532,1.532,0,0,1,.926.494c1.582,1.425,2.1,3.378,2.6,5.267l0,.017c.083.313.169.637.259.953a6.285,6.285,0,0,1,.181,1.186c.01.127.019.237.031.327.019.88-.082,1.35-.349,1.623a1.718,1.718,0,0,1-1.293.338l-.17,0h-.068a7.746,7.746,0,0,0-1.642.242c-.255.056-.513.113-.767.157A2.037,2.037,0,0,1,840.238,3336.378Zm1.16-5.69a.247.247,0,0,0-.2.121.576.576,0,0,0-.068.486,2.114,2.114,0,0,1,.1.449c.051.361.1.734.544.86a.322.322,0,0,0,.085.013.138.138,0,0,0,.1-.04c.077-.078.074-.264.071-.461,0-.042,0-.085,0-.127a.7.7,0,0,1-.133-.525c0-.318-.007-.647-.445-.768A.21.21,0,0,0,841.4,3330.688Z"/>
    <path id="Fill_588" data-name="Fill 588" d="M0,8.3A30.514,30.514,0,0,1,1.988.836C2.369-.2,2.875-.217,3.759.473A3.649,3.649,0,0,1,5.13,2.856c.347,2.222.631,4.454.9,6.688.112.942-.481,1.424-1.428,1.62A4.99,4.99,0,0,1,.712,10.106C.067,9.682.078,8.969,0,8.3Z" transform="translate(832 3346.308)"/>
    <path id="Fill_590" data-name="Fill 590" d="M4.879,10.127c-.408-.034-.879-.215-1.055-.06-.622.544-1.379.171-2.064.42C1.03,10.752-.083,8.954,0,8.057c.13-1.33,1.28-2.172,1.466-3.507A25.21,25.21,0,0,1,2.581.673.856.856,0,0,1,3.39,0a.911.911,0,0,1,.944.619A69.7,69.7,0,0,1,7.089,8.075C7.6,9.447,6.335,9.93,4.879,10.127Z" transform="translate(870.714 3343.463)"/>
    <path id="Fill_592" data-name="Fill 592" d="M6.7,8.53c.315,1.4-1.224,2.155-2.241,1.9a1.811,1.811,0,0,0-1.43-.007c-.7.333-1.77.739-1.953-.746C1.062,9.558.757,9.5.627,9.37a2.017,2.017,0,0,1-.093-2.83,2.239,2.239,0,0,0,.415-.667C1.506,4.222,2.732,2.835,2.855,1.01c.031-.473.207-.913.746-1s.8.3,1.024.72a3.512,3.512,0,0,1,.341.582A67.256,67.256,0,0,1,6.7,8.53Z" transform="translate(890.226 3350.779)"/>
  </g>
</svg>
