<svg xmlns="http://www.w3.org/2000/svg" width="101.391" height="126.173" viewBox="0 0 101.391 126.173">
  <g id="_46" data-name="46" transform="translate(-217 -4209)">
    <path id="Fill_167" data-name="Fill 167" d="M1.408,23.94A175.594,175.594,0,0,1,16.166.21c.62.159.075.546.3.79.352.162.743-.685,1.2.069a1.562,1.562,0,0,1-.123,1.75c-1.541,2.828-3.767,5.216-5.11,8.2-.46,1.02-.661,2.269-1.794,3.063-.7.489-.533,1.725-1.15,2.539-.386.51-.6,1.223-1.03,1.8A15.188,15.188,0,0,0,5.47,26.146c-.051.513-.264.977-.74.993-1.3.043-2.584.581-3.855-.554a2.226,2.226,0,0,1-.747-2.563,27.1,27.1,0,0,1,3.1-6.614c1.433-2.468,3.06-4.819,4.577-7.232C9.849,6.93,12.134,3.865,14.3.714c.206-.3.4-.919.856-.646.34.205-.018.7-.212.994-1.225,1.88-2.537,3.7-3.881,5.5a54.268,54.268,0,0,0-3.442,5.49C5.884,15.077,3.97,18,2.4,21.126A7.991,7.991,0,0,0,1.408,23.94Z" transform="translate(230.852 4209)"/>
    <path id="Fill_169" data-name="Fill 169" d="M4.583,18.571c-.787.633-1.357-.352-1.606-.552-.673-.541-1.729.017-1.992-.623-.4-.97-1.257-1.79-.9-3.089a66.181,66.181,0,0,1,2.7-7.276,29.621,29.621,0,0,1,2.4-5.084A4.268,4.268,0,0,1,6.949.256,1.891,1.891,0,0,1,9.214.522,18.666,18.666,0,0,1,11.041,1.9c.5.543.9,1.112.308,1.853-.415.519-.34,1.2-.548,1.793-.839,2.38-1.159,4.943-2.5,7.144A42.852,42.852,0,0,0,5.791,17.82C5.57,18.319,5.357,18.922,4.583,18.571Z" transform="translate(221.052 4250.566)"/>
    <path id="Fill_171" data-name="Fill 171" d="M11.405,0l-.42.945c.137.179.263.072.4.034.279-.079.374-.613.712-.4.408.258-.117.567-.085.873.447.1.566-.448.93-.463a1.9,1.9,0,0,1-.258,2.348,28.9,28.9,0,0,0-3.5,6.781c-.315.92-1.493,1.369-1.516,2.437a6.215,6.215,0,0,1-1.371,3.5c-1.227,1.673-1.489,3.64-2.219,5.458-.205.512.076,1.142-.429,1.561-.163.135-.42.444-.526.184-.365-.889-1.077-.461-1.667-.608C.359,22.375.144,21.3.037,20.359A8.1,8.1,0,0,1,.9,16.108,79.318,79.318,0,0,1,9.22,1.673C9.726.989,10.18.13,11.405,0Z" transform="translate(263.873 4251.313)"/>
    <path id="Fill_173" data-name="Fill 173" d="M13.817,1.931c-.253.79-.5,1.617-.783,2.43a111.109,111.109,0,0,1-6.681,14.9,49.186,49.186,0,0,0-2.828,5.6c-.21.566-.589,1.012-1.263.41a1.807,1.807,0,0,0-.606-.281A2.224,2.224,0,0,1,.148,21.963,17.785,17.785,0,0,1,2.237,17.85,116.687,116.687,0,0,0,11.308.6c.311-.767.4-.766.945-.182a.368.368,0,0,0,.266.1C13.535.429,13.628,1.173,13.817,1.931Z" transform="translate(246.158 4229.23)"/>
    <path id="Fill_175" data-name="Fill 175" d="M8.76,0C7.83,2.289,6.309,4.041,5.423,6.114a43.173,43.173,0,0,0-2.543,6.352c.816-1.793,1.627-3.589,2.448-5.38A57.448,57.448,0,0,1,8.64,1.2C9.23.229,9.892.279,10.556.811a1.308,1.308,0,0,1,.172,2.007,10.042,10.042,0,0,0-2.4,4.394c-.791,2.719-2.182,5.239-2.6,8.078-.1.654-.57,1.212-.667,1.941a3.5,3.5,0,0,0,.255,2.287c.236.444.817,1.028.3,1.523a1.443,1.443,0,0,1-1.745.333,2.518,2.518,0,0,0-1-.06A2.7,2.7,0,0,1,.045,17.988a30.819,30.819,0,0,1,2.444-7.6A48.789,48.789,0,0,1,7.414,1.16,2.472,2.472,0,0,1,8.76,0Z" transform="translate(217 4289.05)"/>
    <path id="Fill_177" data-name="Fill 177" d="M2.916,19.023c-2.66-.005-3.461-1.17-2.561-3.376a18.665,18.665,0,0,1,3.056-4.57c2.7-3.324,5.506-6.552,8.495-9.623a5.456,5.456,0,0,1,2.53-1.3c.318-.1,1.027-.288,1-.011-.056.567.512,1.081,0,1.688C13.15,4.539,11.109,7.438,9,10.279c-.932,1.253-1.963,2.434-2.861,3.71-.607.863-1.227,1.8-.612,2.958.074.139.036.5-.03.524C4.442,17.823,3.807,18.942,2.916,19.023Z" transform="translate(276.398 4295.082)"/>
    <path id="Fill_179" data-name="Fill 179" d="M4.786,6.873C6.153,5.338,7,3.472,8.349,1.946A15.777,15.777,0,0,0,9.561.621c.56-.8,1.136-.191,1.506.062a.94.94,0,0,1,.142,1.357A38.382,38.382,0,0,0,7.3,9.116C6.547,10.868,5.288,12.4,5.026,14.44a16.125,16.125,0,0,1-.92,2.526c-.391,1.155-1.194.2-1.814.157-.1-.007-.184-.294-.274-.292-.381.005-.606.977-1.053.3C.359,16.219-.288,15.356.136,14A28.206,28.206,0,0,1,2.978,8.022C4.514,5.446,5.93,2.78,8.116.654,8.277.5,8.425.326,8.6.182S9.014-.092,9.2.09c.242.232.114.512-.1.686C7.253,2.293,6.33,4.482,5.031,6.4A4.4,4.4,0,0,0,4.786,6.873Z" transform="translate(301.718 4247)"/>
    <path id="Fill_181" data-name="Fill 181" d="M12.938,2.344a15.821,15.821,0,0,0,1.7-1.632A1.526,1.526,0,0,1,16.6.152c.468.186.368.676.323.989a2.065,2.065,0,0,1-1.371,1.711c-.186.068-.466-.072-.466.264,0,1.643-1.437,2.518-2.056,3.834-.19.4-.544.787-.794,1.2-.728,1.208-1.324,2.521-2.867,2.983-.36.108-.929.43-.735.976.593,1.666-.574,2.779-1.237,4.015C6.31,18.155,4.929,20.02,3.92,22.1c-.114.234-.184.568-.512.487-.409-.1.133-.465-.151-.678-.509.271-.957,1-1.667.14-.253-.309-.626.213-.808.541-.139.249-.291.483-.6.3-.378-.222-.052-.453.048-.657a84.745,84.745,0,0,1,6.4-10.552l6.16-8.974Z" transform="translate(247.844 4289.652)"/>
    <path id="Fill_183" data-name="Fill 183" d="M283.09,4281.8a.049.049,0,0,1-.044-.02c-.035-.05.014-.189.062-.325s.1-.279.062-.328a.049.049,0,0,0-.042-.019,1.143,1.143,0,0,0-.457.273.234.234,0,0,1-.091.048.008.008,0,0,1-.007,0,1.537,1.537,0,0,0-.932-.381,1.455,1.455,0,0,0-1.035.534.051.051,0,0,1-.038.014,3.969,3.969,0,0,1-1.47-1.744,3.583,3.583,0,0,1,.412-1.848,23.027,23.027,0,0,1,6.808-8.111,3.6,3.6,0,0,1,2.192-.776,4.685,4.685,0,0,1,2.2.62c.375.2.574.419.608.667.037.268-.119.566-.478.912a28.629,28.629,0,0,0-1.984,2.126c-.28.332-.547.682-.8,1.021l0,0a16.712,16.712,0,0,1-1.309,1.581,8,8,0,0,0-1.432,2.392,14.193,14.193,0,0,1-.725,1.457q-.075.125-.149.251a5.163,5.163,0,0,1-1.3,1.645A.156.156,0,0,1,283.09,4281.8Zm1.507-8.715a12.614,12.614,0,0,0-3.93,5.751c1.345-2.08,2.57-3.948,3.93-5.751h0Z"/>
    <path id="Fill_185" data-name="Fill 185" d="M7.476,0,7.059,1.424c.253-.2.407-.255.453-.361C7.889.2,8.581.424,9.127.7a1.188,1.188,0,0,1,.5,1.552A17.874,17.874,0,0,1,8.269,5.009,22.787,22.787,0,0,0,6.183,8.667c-.528,1.364-1.3,2.692-.969,4.3a.784.784,0,0,1-1.168.892,2.178,2.178,0,0,0-1.085-.131c-2.354.118-3.57-1.552-2.655-3.8A32.826,32.826,0,0,1,5.843,1.473C6.257.975,6.542.313,7.476,0Z" transform="translate(308.657 4283.741)"/>
    <path id="Fill_187" data-name="Fill 187" d="M1.205,20.885c-.014.846.7,1.257.8,1.932C.96,22.959.3,22.394.075,21.229a4.772,4.772,0,0,1,.763-3.439c1.31-2.146,2.4-4.415,4.232-6.268.716-.725,1.211-1.9,1.907-2.775,1.984-2.5,4.056-4.933,6.1-7.385A5.346,5.346,0,0,1,14.54.136a.69.69,0,0,1,.84.014.579.579,0,0,1,.1.813,9.608,9.608,0,0,1-.752,1.253c-2.765,3.513-5.6,6.969-8.291,10.54A16.612,16.612,0,0,0,4,17.415a5.757,5.757,0,0,0,.107,2.43c.024.221.332.522-.059.688-.751.319-1.38.634-.719,1.612.15.222-.191.34-.429.345-.425.01-.914,0-.964-.525C1.894,21.48,1.619,21.234,1.205,20.885Z" transform="translate(229.104 4312.335)"/>
    <path id="Fill_189" data-name="Fill 189" d="M7.844,3.463c-.244-.173-.38-.206-.487.053a23,23,0,0,1-1.217,2.8c-.306.529-.24,1.621-1.412,1.3-.186-.051-.148.184-.064.317.2.311.075.538-.139.8a1.832,1.832,0,0,0-.371,1.55c.176,1.127-.608,1.677-1.64,1.214-.124-.056-.344-.244-.355-.166C1.9,13.174.9,10.738.494,11.628a1.345,1.345,0,0,1-.483-.975A4.207,4.207,0,0,1,.729,8.209,31.859,31.859,0,0,1,6.992.81,4.96,4.96,0,0,1,9.152.026C9.584-.1,9.839.257,10,.6c.224.469-.023.518-.406.393A4.066,4.066,0,0,1,8.543,3.054C8.344,3.335,8.216,3.675,7.844,3.463Z" transform="translate(240.469 4272.067)"/>
    <path id="Fill_191" data-name="Fill 191" d="M275.257,4241.216h0a5.089,5.089,0,0,1,.014-1.8,7.049,7.049,0,0,0,.086-1.221.638.638,0,0,0,.015-.1,4.262,4.262,0,0,0,1.08-1.789c.107-.271.218-.55.349-.812a3.759,3.759,0,0,0,.189-.483,2.661,2.661,0,0,1,.284-.648c.749-1.1,1.452-2.26,2.132-3.38l.005-.008a55.833,55.833,0,0,1,3.1-4.73c.59-.781,1.164-1.6,1.719-2.383.882-1.251,1.793-2.544,2.794-3.739.049-.058.1-.117.145-.177l.01-.012a4.539,4.539,0,0,1,1.357-1.22l-1.013,1.834-.553,1c.012-.034.021-.069.031-.1a7.843,7.843,0,0,0-1.658,2.05,10.629,10.629,0,0,1-1.162,1.6.455.455,0,0,0,.281.133.368.368,0,0,0,.225-.1.389.389,0,0,1,.143-.081.584.584,0,0,1,.109-.011c.208,0,.373.133.491.4l.012.026.006.013c.041.086.088.184.055.253a.143.143,0,0,1-.1.072c-.736.189-.722.721-.708,1.235,0,.108.006.22,0,.325a1.508,1.508,0,0,1-.891,1.3,2,2,0,0,0-1.166,2.031l-.217.321-.006.008-.19.28a5.071,5.071,0,0,0-1.995,3.331.8.8,0,0,0-.476.3.768.768,0,0,1-.5.3.58.58,0,0,1-.33-.122,4.144,4.144,0,0,1-.76,2.675,7.464,7.464,0,0,0-.651,1.387c-.009.029-.035.043-.08.043a.78.78,0,0,1-.161-.027h-.005a.9.9,0,0,0-.184-.03.113.113,0,0,0-.1.041c-.033.049-.02.141.037.283a.525.525,0,0,0,.494.309.678.678,0,0,0,.455-.187,1.61,1.61,0,0,0-.2.5c-.106.4-.216.807-.935.852-.044,0-.086,0-.126,0a.559.559,0,0,1-.414-.118.574.574,0,0,1-.081-.432c0-.051,0-.1,0-.155-.339.03-.427.251-.52.485-.082.205-.166.418-.437.49Zm3.274-6.687c-.114,0-.26.126-.473.41a4.059,4.059,0,0,0-.572,1.3,3.332,3.332,0,0,1-.752,1.5.237.237,0,0,0-.077.2.251.251,0,0,0,.128.182.363.363,0,0,0,.185.058.246.246,0,0,0,.245-.227,3.574,3.574,0,0,1,.547-1.263,4.077,4.077,0,0,0,.5-1.064c.089-.352.179-.6.52-.6a.744.744,0,0,1,.079,0C278.761,4234.735,278.676,4234.528,278.532,4234.528Zm3.078-5.39h0l-.322.51c-.4.625-.845,1.334-1.267,2.026l-.006.009a.39.39,0,0,0-.085.266.182.182,0,0,0,.091.112.408.408,0,0,0,.2.058.167.167,0,0,0,.18-.119,4.075,4.075,0,0,1,.741-1.326,4.058,4.058,0,0,0,.743-1.33l-.139-.1Z"/>
    <path id="Fill_193" data-name="Fill 193" d="M.822,9.083a2.435,2.435,0,0,0,.15,1.751c.106.288.187.507-.159.627-.315.109-.509-.112-.621-.353A2.684,2.684,0,0,1,.148,9.227,16.189,16.189,0,0,1,3.5,3.294,12.74,12.74,0,0,0,4.813,1.715,4.337,4.337,0,0,1,7.541.024c.478-.156.57.485.668.83a.8.8,0,0,1-.266.7c-1.7,1.113-1.975,3.186-3.129,4.676-.38.491-.206,1.487-.7,2.139-.388.515-.6,1.159-1.319,1.4-.416.141-.1.677-.289,1-.1.164-.156.36-.361.387s-.463-.148-.426-.279C1.971,9.995.932,9.771.822,9.083Z" transform="translate(302.759 4305.594)"/>
    <path id="Fill_195" data-name="Fill 195" d="M13.933,2.626l-.154.362A28.077,28.077,0,0,0,9.91,7.473C8.3,9.647,6.845,11.943,5.444,14.259c-1.186,1.96-2.7,3.722-3.53,5.906a4.475,4.475,0,0,1-1.875,2.3c-.23-1.335.62-2.189,1.11-3.13A62.9,62.9,0,0,1,5.673,12.3C8.566,8.192,11.283,3.94,14.888.376c.206-.2.371-.484.867-.333C15.432,1.123,14.4,1.689,13.933,2.626Z" transform="translate(246.85 4289.37)"/>
    <path id="Fill_197" data-name="Fill 197" d="M.984,6.659c-.444.325.079,1.2-.6,1.06C-.2,7.6.014,6.891.159,6.442A10.37,10.37,0,0,1,5.417.269c.39-.2.956-.515,1.317.062.321.512-.175.823-.458,1.143A9.19,9.19,0,0,0,3.669,6.041c-.074.465-.451.633-.836.79a1.01,1.01,0,0,0-.364.253C1.716,7.94,1.148,8.03.984,6.659Z" transform="translate(303.581 4269.59)"/>
    <path id="Fill_199" data-name="Fill 199" d="M4.379,0C4.255,1.382,3.073,2.145,2.431,3.221A8.3,8.3,0,0,1,.807,5.555c-.189.157-.265.5-.577.329A.46.46,0,0,1,.1,5.194,45.067,45.067,0,0,1,3.3.5C3.583.159,4.032.168,4.412.027Z" transform="translate(276.961 4226.452)"/>
    <path id="Fill_201" data-name="Fill 201" d="M.183,7.05c-.141-.306-.305-.591-.048-.94A61.345,61.345,0,0,1,4.7.329c.13-.139.2-.469.5-.263.187.131.14.333.012.5-1.649,2.085-3.249,4.2-4.747,6.4C.422,7.025.258,7,.151,7.022Z" transform="translate(281.189 4219.43)"/>
    <path id="Fill_203" data-name="Fill 203" d="M1.14,4.844a.656.656,0,0,1-.014.1c-.2.5-.634.912-.6,1.514.013.215.042.519-.285.491-.292-.025-.253-.3-.227-.528A21.847,21.847,0,0,1,1.723.55c.134-.325.525-.673.883-.507.423.2.1.616-.046.861A13.954,13.954,0,0,0,1.14,4.844Z" transform="translate(274.232 4233.25)"/>
    <path id="Fill_205" data-name="Fill 205" d="M.77,1.877c-.009.036-.019.07-.031.1C1.215,1.5,2.044,1.354,2.124.461c.013-.147.389-.687.768-.354.361.316-.024.65-.233.847A7.5,7.5,0,0,0,.538,4.212C.176,3.789-.366,3.512.355,3,.742,2.722.587,2.235.77,1.877Z" transform="translate(286.226 4219.567)"/>
    <path id="Fill_207" data-name="Fill 207" d="M.3,1,.714.39l.5-.39.174.121L.244,2.154,0,2.074Z" transform="translate(281.919 4230.289)"/>
    <path id="Fill_209" data-name="Fill 209" d="M.05,3.624C-.171,2.846.4,2.329.693,1.729S1.324.576,1.643,0a.91.91,0,0,1-.077.839C1.043,1.757.553,2.694.05,3.624Z" transform="translate(278.352 4235.376)"/>
  </g>
</svg>
